<?xml version="1.0" encoding="utf-8"?>
<!-- Generator: Adobe Illustrator 16.0.0, SVG Export Plug-In . SVG Version: 6.00 Build 0)  -->
<!DOCTYPE svg PUBLIC "-//W3C//DTD SVG 1.1//EN" "http://www.w3.org/Graphics/SVG/1.1/DTD/svg11.dtd">
<svg version="1.1" id="Layer_1" xmlns="http://www.w3.org/2000/svg" xmlns:xlink="http://www.w3.org/1999/xlink" x="0px" y="0px"
	 width="140px" height="172px" viewBox="0 0 140 172" enable-background="new 0 0 140 172" xml:space="preserve">
<path fill-rule="evenodd" clip-rule="evenodd" fill="#FFFFFF" d="M52.412,44.322c0-4.48,0.114-7.444-0.027-10.396
	c-0.203-4.204,1.965-6.334,5.876-6.419c8.313-0.18,16.638-0.201,24.951-0.022c4.132,0.089,5.509,2.892,5.67,6.751
	c0.421,10.079,0.489,10.081,10.491,10.075c4.158-0.003,8.318-0.071,12.477-0.032c7.819,0.072,9.19,1.529,8.998,9.48
	c-0.032,1.313-0.203,2.624-0.352,4.46c-1.83,0.185-3.573,0.514-5.315,0.514c-29.608-0.007-59.218-0.059-88.826-0.089
	c-3.196-0.003-6.302,0.499-6.195-4.567c0.15-7.141,1.237-9.569,6.31-9.698C34.756,44.168,43.053,44.322,52.412,44.322z
	 M83.988,43.98c1.811-9.657-0.547-12.579-9.902-12.655c-2.655-0.021-5.312-0.053-7.965,0.014c-8.58,0.212-11.383,4.285-8.707,12.642
	C66.291,43.98,75.174,43.98,83.988,43.98z"/>
<path fill-rule="evenodd" clip-rule="evenodd" fill="#FFFFFF" d="M26.92,65.667c28.979,0,57.838,0,87.234,0
	c-1.035,11.124-2.043,22.15-3.092,33.172c-1.527,16.073-2.936,32.159-4.764,48.198c-0.322,2.831-2.443,5.458-3.734,8.18
	c-21.334,0-42.666,0-64,0c-1.236-2.054-3.355-4.017-3.576-6.174 M73.901,80.329c-2.45,0-4.498,0-6.72,0c0,20.07,0,39.765,0,59.714
	c2.277,0,4.212,0,6.72,0C73.901,119.821,73.901,100.148,73.901,80.329z M46.371,133.116c0.416,6.25,1.002,6.755,7.631,4.739
	c-1.342-19.058-2.693-38.23-4.059-57.613c-2.59,0-4.656,0-7.285,0C43.937,98.315,45.215,115.712,46.371,133.116z M98.236,84.054
	c0.088-1.243,0.012-2.497,0.012-3.828c-2.5,0-4.44,0-7.055,0c-1.363,19.462-2.713,38.724-4.057,57.895
	c6.98,1.406,7.207,1.153,7.615-4.879"/>
</svg>
